<?xml version="1.0" encoding="UTF-8" standalone="no"?>
<!-- Created with Inkscape (http://www.inkscape.org/) -->

<svg
   width="1920"
   height="1080"
   viewBox="0 0 1920 1080"
   version="1.1"
   id="svg5"
   xml:space="preserve"
   inkscape:version="1.2.2 (732a01da63, 2022-12-09)"
   sodipodi:docname="blobscenebluehalfopacity.svg"
   xmlns:inkscape="http://www.inkscape.org/namespaces/inkscape"
   xmlns:sodipodi="http://sodipodi.sourceforge.net/DTD/sodipodi-0.dtd"
   xmlns="http://www.w3.org/2000/svg"
   xmlns:svg="http://www.w3.org/2000/svg"><sodipodi:namedview
     id="namedview7"
     pagecolor="#ffffff"
     bordercolor="#000000"
     borderopacity="0.25"
     inkscape:showpageshadow="2"
     inkscape:pageopacity="0.0"
     inkscape:pagecheckerboard="0"
     inkscape:deskcolor="#d1d1d1"
     inkscape:document-units="px"
     showgrid="false"
     inkscape:zoom="0.89124917"
     inkscape:cx="883.59128"
     inkscape:cy="539.69195"
     inkscape:window-width="2560"
     inkscape:window-height="1377"
     inkscape:window-x="1912"
     inkscape:window-y="-8"
     inkscape:window-maximized="1"
     inkscape:current-layer="layer1" /><defs
     id="defs2"><linearGradient
       id="grad1_0"
       x1="28.7%"
       y1="0%"
       x2="100%"
       y2="100%"><stop
         offset="21.945205479452053%"
         stop-color="#18234c"
         stop-opacity="1"
         id="stop11" /><stop
         offset="78.05479452054794%"
         stop-color="#18234c"
         stop-opacity="1"
         id="stop13" /></linearGradient><linearGradient
       id="grad1_1"
       x1="28.7%"
       y1="0%"
       x2="100%"
       y2="100%"><stop
         offset="21.945205479452053%"
         stop-color="#18234c"
         stop-opacity="1"
         id="stop18" /><stop
         offset="78.05479452054794%"
         stop-color="#393d63"
         stop-opacity="1"
         id="stop20" /></linearGradient><linearGradient
       id="grad1_2"
       x1="28.7%"
       y1="0%"
       x2="100%"
       y2="100%"><stop
         offset="21.945205479452053%"
         stop-color="#585a7c"
         stop-opacity="1"
         id="stop25" /><stop
         offset="78.05479452054794%"
         stop-color="#393d63"
         stop-opacity="1"
         id="stop27" /></linearGradient><linearGradient
       id="grad1_3"
       x1="28.7%"
       y1="0%"
       x2="100%"
       y2="100%"><stop
         offset="21.945205479452053%"
         stop-color="#585a7c"
         stop-opacity="1"
         id="stop32" /><stop
         offset="78.05479452054794%"
         stop-color="#787895"
         stop-opacity="1"
         id="stop34" /></linearGradient><linearGradient
       id="grad1_4"
       x1="28.7%"
       y1="0%"
       x2="100%"
       y2="100%"><stop
         offset="21.945205479452053%"
         stop-color="#9898ae"
         stop-opacity="1"
         id="stop39" /><stop
         offset="78.05479452054794%"
         stop-color="#787895"
         stop-opacity="1"
         id="stop41" /></linearGradient><linearGradient
       id="grad1_5"
       x1="28.7%"
       y1="0%"
       x2="100%"
       y2="100%"><stop
         offset="21.945205479452053%"
         stop-color="#9898ae"
         stop-opacity="1"
         id="stop46" /><stop
         offset="78.05479452054794%"
         stop-color="#b9b9c9"
         stop-opacity="1"
         id="stop48" /></linearGradient><linearGradient
       id="grad1_6"
       x1="28.7%"
       y1="0%"
       x2="100%"
       y2="100%"><stop
         offset="21.945205479452053%"
         stop-color="#dcdce4"
         stop-opacity="1"
         id="stop53" /><stop
         offset="78.05479452054794%"
         stop-color="#b9b9c9"
         stop-opacity="1"
         id="stop55" /></linearGradient><linearGradient
       id="grad1_7"
       x1="28.7%"
       y1="0%"
       x2="100%"
       y2="100%"><stop
         offset="21.945205479452053%"
         stop-color="#dcdce4"
         stop-opacity="1"
         id="stop60" /><stop
         offset="78.05479452054794%"
         stop-color="#ffffff"
         stop-opacity="1"
         id="stop62" /></linearGradient><linearGradient
       id="grad2_0"
       x1="0%"
       y1="0%"
       x2="71.3%"
       y2="100%"><stop
         offset="21.945205479452053%"
         stop-color="#18234c"
         stop-opacity="1"
         id="stop67" /><stop
         offset="78.05479452054794%"
         stop-color="#18234c"
         stop-opacity="1"
         id="stop69" /></linearGradient><linearGradient
       id="grad2_1"
       x1="0%"
       y1="0%"
       x2="71.3%"
       y2="100%"><stop
         offset="21.945205479452053%"
         stop-color="#393d63"
         stop-opacity="1"
         id="stop74" /><stop
         offset="78.05479452054794%"
         stop-color="#18234c"
         stop-opacity="1"
         id="stop76" /></linearGradient><linearGradient
       id="grad2_2"
       x1="0%"
       y1="0%"
       x2="71.3%"
       y2="100%"><stop
         offset="21.945205479452053%"
         stop-color="#393d63"
         stop-opacity="1"
         id="stop81" /><stop
         offset="78.05479452054794%"
         stop-color="#585a7c"
         stop-opacity="1"
         id="stop83" /></linearGradient><linearGradient
       id="grad2_3"
       x1="0%"
       y1="0%"
       x2="71.3%"
       y2="100%"><stop
         offset="21.945205479452053%"
         stop-color="#787895"
         stop-opacity="1"
         id="stop88" /><stop
         offset="78.05479452054794%"
         stop-color="#585a7c"
         stop-opacity="1"
         id="stop90" /></linearGradient><linearGradient
       id="grad2_4"
       x1="0%"
       y1="0%"
       x2="71.3%"
       y2="100%"><stop
         offset="21.945205479452053%"
         stop-color="#787895"
         stop-opacity="1"
         id="stop95" /><stop
         offset="78.05479452054794%"
         stop-color="#9898ae"
         stop-opacity="1"
         id="stop97" /></linearGradient><linearGradient
       id="grad2_5"
       x1="0%"
       y1="0%"
       x2="71.3%"
       y2="100%"><stop
         offset="21.945205479452053%"
         stop-color="#b9b9c9"
         stop-opacity="1"
         id="stop102" /><stop
         offset="78.05479452054794%"
         stop-color="#9898ae"
         stop-opacity="1"
         id="stop104" /></linearGradient><linearGradient
       id="grad2_6"
       x1="0%"
       y1="0%"
       x2="71.3%"
       y2="100%"><stop
         offset="21.945205479452053%"
         stop-color="#b9b9c9"
         stop-opacity="1"
         id="stop109" /><stop
         offset="78.05479452054794%"
         stop-color="#dcdce4"
         stop-opacity="1"
         id="stop111" /></linearGradient><linearGradient
       id="grad2_7"
       x1="0%"
       y1="0%"
       x2="71.3%"
       y2="100%"><stop
         offset="21.945205479452053%"
         stop-color="#ffffff"
         stop-opacity="1"
         id="stop116" /><stop
         offset="78.05479452054794%"
         stop-color="#dcdce4"
         stop-opacity="1"
         id="stop118" /></linearGradient></defs><g
     inkscape:label="Layer 1"
     inkscape:groupmode="layer"
     id="layer1"><g
       id="g229"
       transform="matrix(1.860064,0,0,1.4649618,6.1003348,6.9106715)"
       style="opacity:0.539823"><rect
         x="0"
         y="0"
         width="1024"
         height="730"
         fill="#ffffff"
         id="rect9" /><g
         transform="translate(1024)"
         id="g139"><path
           d="m 0,471.6 c -7,-93.7 -14,-187.4 -35.2,-181.7 -21.2,5.6 -56.7,110.7 -60.5,98.5 -3.9,-12.2 23.9,-141.7 6.7,-153.7 -17.2,-12.1 -79.3,93.2 -78.8,84.9 0.5,-8.2 63.7,-130.1 32.6,-123.7 -31.1,6.4 -156.3,141 -162.5,140.2 -6.3,-0.9 106.5,-137.2 97.8,-159 -8.6,-21.9 -138.9,70.7 -188.2,90.8 -49.4,20 -17.9,-32.5 7.4,-68.1 25.2,-35.5 44.2,-54.1 31.9,-67.5 -12.2,-13.5 -55.6,-21.7 -27.9,-39.4 27.7,-17.8 126.5,-45 122.6,-62 -4,-17.1 -110.7,-24 -217.5,-30.9 H 0 Z"
           fill="#ededf1"
           id="path123" /><path
           d="m 0,412.6 c -6.1,-81.9 -12.2,-163.9 -30.8,-159 -18.6,5 -49.6,96.9 -53,86.2 -3.3,-10.6 20.9,-123.9 5.9,-134.4 -15,-10.6 -69.3,81.5 -68.9,74.3 0.5,-7.3 55.7,-113.9 28.5,-108.3 -27.2,5.6 -136.8,123.4 -142.2,122.7 -5.5,-0.8 93.2,-120.1 85.6,-139.2 -7.6,-19.1 -121.5,62 -164.7,79.5 -43.2,17.5 -15.6,-28.4 6.4,-59.5 22.1,-31.2 38.7,-47.4 28,-59.2 C -315.9,104 -353.9,96.8 -329.6,81.2 -305.4,65.7 -218.9,41.9 -222.4,27 -225.8,12.1 -319.2,6 -412.6,0 H 0 Z"
           fill="#cbcad6"
           id="path125" /><path
           d="m 0,353.7 c -5.2,-70.3 -10.5,-140.5 -26.4,-136.3 -15.9,4.3 -42.5,83 -45.4,73.9 -2.9,-9.2 17.9,-106.2 5,-115.3 -12.8,-9 -59.4,70 -59,63.7 0.4,-6.2 47.7,-97.6 24.4,-92.8 -23.3,4.8 -117.2,105.8 -121.9,105.2 -4.7,-0.7 79.9,-102.9 73.4,-119.3 -6.5,-16.4 -104.2,53.1 -141.2,68.1 -37,15.1 -13.4,-24.4 5.5,-51 19,-26.7 33.2,-40.6 24,-50.7 -9.1,-10.1 -41.7,-16.3 -20.9,-29.6 20.7,-13.3 94.9,-33.7 91.9,-46.5 -3,-12.7 -83,-17.9 -163.1,-23.1 H 0 Z"
           fill="#a9a9bb"
           id="path127" /><path
           d="m 0,294.7 c -4.4,-58.5 -8.7,-117.1 -22,-113.5 -13.3,3.5 -35.4,69.2 -37.8,61.5 -2.4,-7.6 14.9,-88.5 4.2,-96 -10.8,-7.6 -49.6,58.3 -49.3,53.1 0.4,-5.2 39.8,-81.4 20.4,-77.4 -19.4,4 -97.7,88.2 -101.6,87.7 -3.9,-0.6 66.6,-85.8 61.2,-99.4 -5.4,-13.7 -86.8,44.2 -117.7,56.7 -30.8,12.6 -11.1,-20.3 4.6,-42.5 15.8,-22.2 27.7,-33.8 20,-42.2 -7.6,-8.4 -34.8,-13.6 -17.5,-24.7 17.4,-11 79.1,-28.1 76.7,-38.7 C -161.3,8.6 -228,4.3 -294.7,0 H 0 Z"
           fill="#8888a2"
           id="path129" /><path
           d="m 0,235.8 c -3.5,-46.9 -7,-93.7 -17.6,-90.9 -10.6,2.9 -28.3,55.4 -30.3,49.3 -1.9,-6.1 12,-70.8 3.4,-76.9 -8.6,-6 -39.6,46.7 -39.4,42.5 0.3,-4.1 31.8,-65.1 16.3,-61.9 -15.5,3.2 -78.2,70.6 -81.3,70.1 -3.1,-0.4 53.3,-68.5 49,-79.5 -4.4,-10.9 -69.5,35.4 -94.2,45.4 -24.6,10.1 -8.9,-16.2 3.7,-34 12.6,-17.8 22.1,-27.1 16,-33.8 -6.1,-6.7 -27.8,-10.8 -14,-19.7 13.9,-8.8 63.3,-22.4 61.3,-31 C -129,6.9 -182.4,3.5 -235.8,0 H 0 Z"
           fill="#686988"
           id="path131" /><path
           d="m 0,176.8 c -2.6,-35.1 -5.2,-70.2 -13.2,-68.1 -8,2.1 -21.3,41.5 -22.7,36.9 -1.4,-4.5 9,-53.1 2.5,-57.6 -6.4,-4.5 -29.7,35 -29.5,31.9 0.2,-3.1 23.9,-48.8 12.2,-46.4 -11.6,2.3 -58.6,52.8 -61,52.5 -2.3,-0.3 40,-51.4 36.8,-59.6 -3.3,-8.2 -52.1,26.5 -70.6,34.1 -18.6,7.5 -6.7,-12.2 2.7,-25.6 9.5,-13.3 16.6,-20.3 12,-25.3 -4.6,-5 -20.9,-8.1 -10.5,-14.8 10.4,-6.6 47.5,-16.8 46,-23.2 -1.5,-6.4 -41.5,-9 -81.5,-11.6 H 0 Z"
           fill="#484c70"
           id="path133" /><path
           d="M 0,117.9 C -1.7,94.5 -3.5,71.1 -8.8,72.5 -14.1,73.9 -23,100.1 -23.9,97.1 -24.9,94 -18,61.7 -22.3,58.7 -26.5,55.7 -42.1,82 -41.9,79.9 -41.8,77.8 -26,47.4 -33.8,49 -41.6,50.6 -72.9,84.2 -74.4,84 -76,83.8 -47.8,49.7 -50,44.3 -52.1,38.8 -84.7,62 -97,67 c -12.4,5 -4.5,-8.2 1.8,-17 6.3,-8.9 11.1,-13.6 8,-16.9 -3,-3.4 -13.9,-5.5 -7,-9.9 6.9,-4.4 31.7,-11.2 30.7,-15.5 -1,-4.2 -27.7,-6 -54.4,-7.7 H 0 Z"
           fill="#293058"
           id="path135" /><path
           d="M 0,58.9 C -0.9,47.2 -1.7,35.5 -4.4,36.2 -7.1,36.9 -11.5,50.1 -12,48.5 -12.4,47 -9,30.8 -11.1,29.3 -13.3,27.8 -21,41 -21,40 c 0.1,-1.1 8,-16.3 4.1,-15.5 -3.9,0.8 -19.5,17.6 -20.3,17.5 -0.8,-0.1 13.3,-17.1 12.2,-19.9 -1.1,-2.7 -17.3,8.9 -23.5,11.4 -6.2,2.5 -2.2,-4.1 0.9,-8.5 3.2,-4.5 5.5,-6.8 4,-8.5 -1.5,-1.6 -7,-2.7 -3.5,-4.9 C -43.6,9.4 -31.3,6 -31.8,3.9 -32.3,1.7 -45.6,0.9 -58.9,0 H 0 Z"
           fill="#18234c"
           id="path137" /></g><g
         transform="translate(0,730)"
         id="g157"><path
           d="m 0,-471.6 c 9.5,86 19,172 35.1,182.7 16.1,10.8 38.8,-53.8 50.1,-56.8 11.3,-2.9 11.2,55.6 12.3,88.6 1.1,32.9 3.3,40.2 25.2,23.3 21.8,-16.8 63.3,-57.9 79,-58.4 15.6,-0.4 5.6,39.6 3.2,60.9 -2.4,21.3 3,23.8 47.3,7.8 44.4,-16 127.8,-50.4 108.3,-25.3 -19.5,25.1 -141.9,109.8 -120.5,122.9 21.3,13.1 186.4,-45.4 200.9,-41.3 14.6,4.1 -121.2,70.7 -173.9,101.4 -52.7,30.6 -22.1,25.3 25.8,30.2 48,5 113.4,20.3 178.8,35.6 H 0 Z"
           fill="#ededf1"
           id="path141" /><path
           d="m 0,-412.6 c 8.3,75.2 16.6,150.4 30.7,159.8 14.1,9.4 33.9,-47 43.8,-49.6 9.9,-2.7 9.9,48.6 10.8,77.4 1,28.8 2.9,35.2 22.1,20.5 19.1,-14.8 55.3,-50.7 69.1,-51.1 13.7,-0.5 4.9,34.6 2.8,53.2 -2.1,18.6 2.6,20.8 41.4,6.9 38.8,-14 111.8,-44.2 94.7,-22.2 -17.1,22 -124.1,96 -105.4,107.5 18.6,11.5 163.1,-39.7 175.8,-36.1 12.8,3.6 -106.1,61.9 -152.2,88.7 -46,26.8 -19.3,22.1 22.6,26.5 42,4.3 99.2,17.7 156.4,31.1 H 0 Z"
           fill="#cbcad6"
           id="path143" /><path
           d="m 0,-353.7 c 7.1,64.5 14.2,129 26.3,137 12.1,8.1 29.1,-40.3 37.6,-42.5 8.5,-2.3 8.4,41.7 9.2,66.4 0.8,24.7 2.5,30.1 18.9,17.5 16.4,-12.7 47.5,-43.5 59.2,-43.8 11.8,-0.4 4.3,29.7 2.5,45.6 -1.8,16 2.2,17.9 35.5,5.9 33.3,-12 95.8,-37.8 81.2,-19 -14.7,18.8 -106.4,82.3 -90.4,92.1 16,9.9 139.8,-34 150.7,-30.9 11,3.1 -90.9,53.1 -130.4,76 -39.5,23 -16.6,19 19.3,22.7 36,3.8 85.1,15.2 134.1,26.7 H 0 Z"
           fill="#a9a9bb"
           id="path145" /><path
           d="m 0,-294.7 c 5.9,53.7 11.9,107.4 21.9,114.2 10.1,6.7 24.3,-33.7 31.3,-35.5 7.1,-1.9 7.1,34.7 7.7,55.3 0.7,20.6 2.1,25.1 15.8,14.6 13.6,-10.5 39.5,-36.2 49.3,-36.5 9.8,-0.3 3.5,24.7 2.1,38 -1.5,13.3 1.8,14.9 29.6,4.9 27.7,-10 79.8,-31.5 67.6,-15.8 -12.2,15.7 -88.7,68.6 -75.3,76.8 13.3,8.2 116.5,-28.4 125.6,-25.8 9.1,2.5 -75.8,44.2 -108.7,63.4 -32.9,19.1 -13.8,15.8 16.1,18.9 30,3.1 70.9,12.6 111.7,22.2 H 0 Z"
           fill="#8888a2"
           id="path147" /><path
           d="m 0,-235.8 c 4.7,43 9.5,86 17.5,91.4 8.1,5.3 19.4,-26.9 25.1,-28.4 5.7,-1.5 5.6,27.8 6.2,44.2 0.5,16.5 1.6,20.2 12.5,11.7 11,-8.4 31.7,-28.9 39.5,-29.2 7.9,-0.2 2.8,19.8 1.7,30.5 -1.2,10.6 1.4,11.9 23.6,3.9 22.2,-8 63.9,-25.3 54.1,-12.7 -9.7,12.5 -70.9,54.9 -60.2,61.4 10.7,6.6 93.2,-22.7 100.5,-20.6 7.3,2 -60.7,35.4 -87,50.7 -26.3,15.3 -11.1,12.6 12.9,15.1 24,2.5 56.7,10.2 89.4,17.8 H 0 Z"
           fill="#686988"
           id="path149" /><path
           d="m 0,-176.8 c 3.6,32.2 7.1,64.4 13.2,68.5 6,4 14.5,-20.2 18.7,-21.3 4.3,-1.1 4.3,20.8 4.7,33.2 0.4,12.3 1.2,15.1 9.4,8.7 8.2,-6.3 23.7,-21.7 29.6,-21.9 5.9,-0.1 2.1,14.9 1.2,22.9 -0.8,7.9 1.2,8.9 17.8,2.9 16.6,-6 47.9,-18.9 40.6,-9.5 -7.3,9.4 -53.2,41.2 -45.2,46.1 8,4.9 69.9,-17 75.4,-15.5 5.4,1.5 -45.5,26.5 -65.3,38 -19.7,11.5 -8.3,9.5 9.7,11.4 18,1.8 42.5,7.6 67,13.3 H 0 Z"
           fill="#484c70"
           id="path151" /><path
           d="m 0,-117.9 c 2.4,21.5 4.7,43 8.8,45.7 4,2.7 9.7,-13.5 12.5,-14.2 2.8,-0.8 2.8,13.9 3.1,22.1 0.2,8.3 0.8,10.1 6.3,5.9 5.4,-4.3 15.8,-14.5 19.7,-14.6 3.9,-0.2 1.4,9.9 0.8,15.2 -0.6,5.3 0.8,5.9 11.9,1.9 11.1,-4 31.9,-12.6 27,-6.3 -4.9,6.3 -35.4,27.4 -30.1,30.7 5.3,3.3 46.6,-11.3 50.2,-10.3 3.7,1 -30.3,17.7 -43.4,25.3 -13.2,7.7 -5.6,6.4 6.4,7.6 12,1.3 28.4,5.1 44.7,8.9 H 0 Z"
           fill="#293058"
           id="path153" /><path
           d="m 0,-58.9 c 1.2,10.7 2.4,21.4 4.4,22.8 2,1.3 4.8,-6.7 6.2,-7.1 1.5,-0.4 1.5,6.9 1.6,11.1 0.1,4.1 0.4,5 3.1,2.9 2.8,-2.1 7.9,-7.3 9.9,-7.3 2,-0.1 0.7,4.9 0.4,7.6 -0.3,2.6 0.4,3 5.9,1 5.6,-2 16,-6.3 13.6,-3.2 -2.5,3.1 -17.8,13.7 -15.1,15.4 2.7,1.6 23.3,-5.7 25.1,-5.2 1.8,0.5 -15.1,8.8 -21.7,12.7 -6.6,3.8 -2.8,3.1 3.2,3.8 6,0.6 14.2,2.5 22.3,4.4 H 0 Z"
           fill="#18234c"
           id="path155" /></g></g></g></svg>
