<svg id="visual" viewBox="0 0 1024 730" width="1024" height="730" xmlns="http://www.w3.org/2000/svg" xmlns:xlink="http://www.w3.org/1999/xlink" version="1.1"><rect x="0" y="0" width="1024" height="730" fill="#ffffff"></rect><defs><linearGradient id="grad1_0" x1="28.7%" y1="0%" x2="100%" y2="100%"><stop offset="21.945205479452053%" stop-color="#18234c" stop-opacity="1"></stop><stop offset="78.05479452054794%" stop-color="#18234c" stop-opacity="1"></stop></linearGradient></defs><defs><linearGradient id="grad1_1" x1="28.7%" y1="0%" x2="100%" y2="100%"><stop offset="21.945205479452053%" stop-color="#18234c" stop-opacity="1"></stop><stop offset="78.05479452054794%" stop-color="#393d63" stop-opacity="1"></stop></linearGradient></defs><defs><linearGradient id="grad1_2" x1="28.7%" y1="0%" x2="100%" y2="100%"><stop offset="21.945205479452053%" stop-color="#585a7c" stop-opacity="1"></stop><stop offset="78.05479452054794%" stop-color="#393d63" stop-opacity="1"></stop></linearGradient></defs><defs><linearGradient id="grad1_3" x1="28.7%" y1="0%" x2="100%" y2="100%"><stop offset="21.945205479452053%" stop-color="#585a7c" stop-opacity="1"></stop><stop offset="78.05479452054794%" stop-color="#787895" stop-opacity="1"></stop></linearGradient></defs><defs><linearGradient id="grad1_4" x1="28.7%" y1="0%" x2="100%" y2="100%"><stop offset="21.945205479452053%" stop-color="#9898ae" stop-opacity="1"></stop><stop offset="78.05479452054794%" stop-color="#787895" stop-opacity="1"></stop></linearGradient></defs><defs><linearGradient id="grad1_5" x1="28.7%" y1="0%" x2="100%" y2="100%"><stop offset="21.945205479452053%" stop-color="#9898ae" stop-opacity="1"></stop><stop offset="78.05479452054794%" stop-color="#b9b9c9" stop-opacity="1"></stop></linearGradient></defs><defs><linearGradient id="grad1_6" x1="28.7%" y1="0%" x2="100%" y2="100%"><stop offset="21.945205479452053%" stop-color="#dcdce4" stop-opacity="1"></stop><stop offset="78.05479452054794%" stop-color="#b9b9c9" stop-opacity="1"></stop></linearGradient></defs><defs><linearGradient id="grad1_7" x1="28.7%" y1="0%" x2="100%" y2="100%"><stop offset="21.945205479452053%" stop-color="#dcdce4" stop-opacity="1"></stop><stop offset="78.05479452054794%" stop-color="#ffffff" stop-opacity="1"></stop></linearGradient></defs><defs><linearGradient id="grad2_0" x1="0%" y1="0%" x2="71.3%" y2="100%"><stop offset="21.945205479452053%" stop-color="#18234c" stop-opacity="1"></stop><stop offset="78.05479452054794%" stop-color="#18234c" stop-opacity="1"></stop></linearGradient></defs><defs><linearGradient id="grad2_1" x1="0%" y1="0%" x2="71.3%" y2="100%"><stop offset="21.945205479452053%" stop-color="#393d63" stop-opacity="1"></stop><stop offset="78.05479452054794%" stop-color="#18234c" stop-opacity="1"></stop></linearGradient></defs><defs><linearGradient id="grad2_2" x1="0%" y1="0%" x2="71.3%" y2="100%"><stop offset="21.945205479452053%" stop-color="#393d63" stop-opacity="1"></stop><stop offset="78.05479452054794%" stop-color="#585a7c" stop-opacity="1"></stop></linearGradient></defs><defs><linearGradient id="grad2_3" x1="0%" y1="0%" x2="71.3%" y2="100%"><stop offset="21.945205479452053%" stop-color="#787895" stop-opacity="1"></stop><stop offset="78.05479452054794%" stop-color="#585a7c" stop-opacity="1"></stop></linearGradient></defs><defs><linearGradient id="grad2_4" x1="0%" y1="0%" x2="71.3%" y2="100%"><stop offset="21.945205479452053%" stop-color="#787895" stop-opacity="1"></stop><stop offset="78.05479452054794%" stop-color="#9898ae" stop-opacity="1"></stop></linearGradient></defs><defs><linearGradient id="grad2_5" x1="0%" y1="0%" x2="71.3%" y2="100%"><stop offset="21.945205479452053%" stop-color="#b9b9c9" stop-opacity="1"></stop><stop offset="78.05479452054794%" stop-color="#9898ae" stop-opacity="1"></stop></linearGradient></defs><defs><linearGradient id="grad2_6" x1="0%" y1="0%" x2="71.3%" y2="100%"><stop offset="21.945205479452053%" stop-color="#b9b9c9" stop-opacity="1"></stop><stop offset="78.05479452054794%" stop-color="#dcdce4" stop-opacity="1"></stop></linearGradient></defs><defs><linearGradient id="grad2_7" x1="0%" y1="0%" x2="71.3%" y2="100%"><stop offset="21.945205479452053%" stop-color="#ffffff" stop-opacity="1"></stop><stop offset="78.05479452054794%" stop-color="#dcdce4" stop-opacity="1"></stop></linearGradient></defs><g transform="translate(1024, 0)"><path d="M0 471.6C-7 377.9 -14 284.2 -35.2 289.9C-56.4 295.5 -91.9 400.6 -95.7 388.4C-99.6 376.2 -71.8 246.7 -89 234.7C-106.2 222.6 -168.3 327.9 -167.8 319.6C-167.3 311.4 -104.1 189.5 -135.2 195.9C-166.3 202.3 -291.5 336.9 -297.7 336.1C-304 335.2 -191.2 198.9 -199.9 177.1C-208.5 155.2 -338.8 247.8 -388.1 267.9C-437.5 287.9 -406 235.4 -380.7 199.8C-355.5 164.3 -336.5 145.7 -348.8 132.3C-361 118.8 -404.4 110.6 -376.7 92.9C-349 75.1 -250.2 47.9 -254.1 30.9C-258.1 13.8 -364.8 6.9 -471.6 0L0 0Z" fill="#ededf1"></path><path d="M0 412.6C-6.1 330.7 -12.2 248.7 -30.8 253.6C-49.4 258.6 -80.4 350.5 -83.8 339.8C-87.1 329.2 -62.9 215.9 -77.9 205.4C-92.9 194.8 -147.2 286.9 -146.8 279.7C-146.3 272.4 -91.1 165.8 -118.3 171.4C-145.5 177 -255.1 294.8 -260.5 294.1C-266 293.3 -167.3 174 -174.9 154.9C-182.5 135.8 -296.4 216.9 -339.6 234.4C-382.8 251.9 -355.2 206 -333.2 174.9C-311.1 143.7 -294.5 127.5 -305.2 115.7C-315.9 104 -353.9 96.8 -329.6 81.2C-305.4 65.7 -218.9 41.9 -222.4 27C-225.8 12.1 -319.2 6 -412.6 0L0 0Z" fill="#cbcad6"></path><path d="M0 353.7C-5.2 283.4 -10.5 213.2 -26.4 217.4C-42.3 221.7 -68.9 300.4 -71.8 291.3C-74.7 282.1 -53.9 185.1 -66.8 176C-79.6 167 -126.2 246 -125.8 239.7C-125.4 233.5 -78.1 142.1 -101.4 146.9C-124.7 151.7 -218.6 252.7 -223.3 252.1C-228 251.4 -143.4 149.2 -149.9 132.8C-156.4 116.4 -254.1 185.9 -291.1 200.9C-328.1 216 -304.5 176.5 -285.6 149.9C-266.6 123.2 -252.4 109.3 -261.6 99.2C-270.7 89.1 -303.3 82.9 -282.5 69.6C-261.8 56.3 -187.6 35.9 -190.6 23.1C-193.6 10.4 -273.6 5.2 -353.7 0L0 0Z" fill="#a9a9bb"></path><path d="M0 294.7C-4.4 236.2 -8.7 177.6 -22 181.2C-35.3 184.7 -57.4 250.4 -59.8 242.7C-62.2 235.1 -44.9 154.2 -55.6 146.7C-66.4 139.1 -105.2 205 -104.9 199.8C-104.5 194.6 -65.1 118.4 -84.5 122.4C-103.9 126.4 -182.2 210.6 -186.1 210.1C-190 209.5 -119.5 124.3 -124.9 110.7C-130.3 97 -211.7 154.9 -242.6 167.4C-273.4 180 -253.7 147.1 -238 124.9C-222.2 102.7 -210.3 91.1 -218 82.7C-225.6 74.3 -252.8 69.1 -235.5 58C-218.1 47 -156.4 29.9 -158.8 19.3C-161.3 8.6 -228 4.3 -294.7 0L0 0Z" fill="#8888a2"></path><path d="M0 235.8C-3.5 188.9 -7 142.1 -17.6 144.9C-28.2 147.8 -45.9 200.3 -47.9 194.2C-49.8 188.1 -35.9 123.4 -44.5 117.3C-53.1 111.3 -84.1 164 -83.9 159.8C-83.6 155.7 -52.1 94.7 -67.6 97.9C-83.1 101.1 -145.8 168.5 -148.9 168C-152 167.6 -95.6 99.5 -99.9 88.5C-104.3 77.6 -169.4 123.9 -194.1 133.9C-218.7 144 -203 117.7 -190.4 99.9C-177.8 82.1 -168.3 72.8 -174.4 66.1C-180.5 59.4 -202.2 55.3 -188.4 46.4C-174.5 37.6 -125.1 24 -127.1 15.4C-129 6.9 -182.4 3.5 -235.8 0L0 0Z" fill="#686988"></path><path d="M0 176.8C-2.6 141.7 -5.2 106.6 -13.2 108.7C-21.2 110.8 -34.5 150.2 -35.9 145.6C-37.3 141.1 -26.9 92.5 -33.4 88C-39.8 83.5 -63.1 123 -62.9 119.9C-62.7 116.8 -39 71.1 -50.7 73.5C-62.3 75.8 -109.3 126.3 -111.7 126C-114 125.7 -71.7 74.6 -74.9 66.4C-78.2 58.2 -127 92.9 -145.5 100.5C-164.1 108 -152.2 88.3 -142.8 74.9C-133.3 61.6 -126.2 54.6 -130.8 49.6C-135.4 44.6 -151.7 41.5 -141.3 34.8C-130.9 28.2 -93.8 18 -95.3 11.6C-96.8 5.2 -136.8 2.6 -176.8 0L0 0Z" fill="#484c70"></path><path d="M0 117.9C-1.7 94.5 -3.5 71.1 -8.8 72.5C-14.1 73.9 -23 100.1 -23.9 97.1C-24.9 94 -18 61.7 -22.3 58.7C-26.5 55.7 -42.1 82 -41.9 79.9C-41.8 77.8 -26 47.4 -33.8 49C-41.6 50.6 -72.9 84.2 -74.4 84C-76 83.8 -47.8 49.7 -50 44.3C-52.1 38.8 -84.7 62 -97 67C-109.4 72 -101.5 58.8 -95.2 50C-88.9 41.1 -84.1 36.4 -87.2 33.1C-90.2 29.7 -101.1 27.6 -94.2 23.2C-87.3 18.8 -62.5 12 -63.5 7.7C-64.5 3.5 -91.2 1.7 -117.9 0L0 0Z" fill="#293058"></path><path d="M0 58.9C-0.9 47.2 -1.7 35.5 -4.4 36.2C-7.1 36.9 -11.5 50.1 -12 48.5C-12.4 47 -9 30.8 -11.1 29.3C-13.3 27.8 -21 41 -21 40C-20.9 38.9 -13 23.7 -16.9 24.5C-20.8 25.3 -36.4 42.1 -37.2 42C-38 41.9 -23.9 24.9 -25 22.1C-26.1 19.4 -42.3 31 -48.5 33.5C-54.7 36 -50.7 29.4 -47.6 25C-44.4 20.5 -42.1 18.2 -43.6 16.5C-45.1 14.9 -50.6 13.8 -47.1 11.6C-43.6 9.4 -31.3 6 -31.8 3.9C-32.3 1.7 -45.6 0.9 -58.9 0L0 0Z" fill="#18234c"></path></g><g transform="translate(0, 730)"><path d="M0 -471.6C9.5 -385.6 19 -299.6 35.1 -288.9C51.2 -278.1 73.9 -342.7 85.2 -345.7C96.5 -348.6 96.4 -290.1 97.5 -257.1C98.6 -224.2 100.8 -216.9 122.7 -233.8C144.5 -250.6 186 -291.7 201.7 -292.2C217.3 -292.6 207.3 -252.6 204.9 -231.3C202.5 -210 207.9 -207.5 252.2 -223.5C296.6 -239.5 380 -273.9 360.5 -248.8C341 -223.7 218.6 -139 240 -125.9C261.3 -112.8 426.4 -171.3 440.9 -167.2C455.5 -163.1 319.7 -96.5 267 -65.8C214.3 -35.2 244.9 -40.5 292.8 -35.6C340.8 -30.6 406.2 -15.3 471.6 0L0 0Z" fill="#ededf1"></path><path d="M0 -412.6C8.3 -337.4 16.6 -262.2 30.7 -252.8C44.8 -243.4 64.6 -299.8 74.5 -302.4C84.4 -305.1 84.4 -253.8 85.3 -225C86.3 -196.2 88.2 -189.8 107.4 -204.5C126.5 -219.3 162.7 -255.2 176.5 -255.6C190.2 -256.1 181.4 -221 179.3 -202.4C177.2 -183.8 181.9 -181.6 220.7 -195.5C259.5 -209.5 332.5 -239.7 315.4 -217.7C298.3 -195.7 191.3 -121.7 210 -110.2C228.6 -98.7 373.1 -149.9 385.8 -146.3C398.6 -142.7 279.7 -84.4 233.6 -57.6C187.6 -30.8 214.3 -35.5 256.2 -31.1C298.2 -26.8 355.4 -13.4 412.6 0L0 0Z" fill="#cbcad6"></path><path d="M0 -353.7C7.1 -289.2 14.2 -224.7 26.3 -216.7C38.4 -208.6 55.4 -257 63.9 -259.2C72.4 -261.5 72.3 -217.5 73.1 -192.8C73.9 -168.1 75.6 -162.7 92 -175.3C108.4 -188 139.5 -218.8 151.2 -219.1C163 -219.5 155.5 -189.4 153.7 -173.5C151.9 -157.5 155.9 -155.6 189.2 -167.6C222.5 -179.6 285 -205.4 270.4 -186.6C255.7 -167.8 164 -104.3 180 -94.5C196 -84.6 319.8 -128.5 330.7 -125.4C341.7 -122.3 239.8 -72.3 200.3 -49.4C160.8 -26.4 183.7 -30.4 219.6 -26.7C255.6 -22.9 304.7 -11.5 353.7 0L0 0Z" fill="#a9a9bb"></path><path d="M0 -294.7C5.9 -241 11.9 -187.3 21.9 -180.5C32 -173.8 46.2 -214.2 53.2 -216C60.3 -217.9 60.3 -181.3 60.9 -160.7C61.6 -140.1 63 -135.6 76.7 -146.1C90.3 -156.6 116.2 -182.3 126 -182.6C135.8 -182.9 129.5 -157.9 128.1 -144.6C126.6 -131.3 129.9 -129.7 157.7 -139.7C185.4 -149.7 237.5 -171.2 225.3 -155.5C213.1 -139.8 136.6 -86.9 150 -78.7C163.3 -70.5 266.5 -107.1 275.6 -104.5C284.7 -102 199.8 -60.3 166.9 -41.1C134 -22 153.1 -25.3 183 -22.2C213 -19.1 253.9 -9.6 294.7 0L0 0Z" fill="#8888a2"></path><path d="M0 -235.8C4.7 -192.8 9.5 -149.8 17.5 -144.4C25.6 -139.1 36.9 -171.3 42.6 -172.8C48.3 -174.3 48.2 -145 48.8 -128.6C49.3 -112.1 50.4 -108.4 61.3 -116.9C72.3 -125.3 93 -145.8 100.8 -146.1C108.7 -146.3 103.6 -126.3 102.5 -115.6C101.3 -105 103.9 -103.7 126.1 -111.7C148.3 -119.7 190 -137 180.2 -124.4C170.5 -111.9 109.3 -69.5 120 -63C130.7 -56.4 213.2 -85.7 220.5 -83.6C227.8 -81.6 159.8 -48.2 133.5 -32.9C107.2 -17.6 122.4 -20.3 146.4 -17.8C170.4 -15.3 203.1 -7.6 235.8 0L0 0Z" fill="#686988"></path><path d="M0 -176.8C3.6 -144.6 7.1 -112.4 13.2 -108.3C19.2 -104.3 27.7 -128.5 31.9 -129.6C36.2 -130.7 36.2 -108.8 36.6 -96.4C37 -84.1 37.8 -81.3 46 -87.7C54.2 -94 69.7 -109.4 75.6 -109.6C81.5 -109.7 77.7 -94.7 76.8 -86.7C76 -78.8 78 -77.8 94.6 -83.8C111.2 -89.8 142.5 -102.7 135.2 -93.3C127.9 -83.9 82 -52.1 90 -47.2C98 -42.3 159.9 -64.2 165.4 -62.7C170.8 -61.2 119.9 -36.2 100.1 -24.7C80.4 -13.2 91.8 -15.2 109.8 -13.3C127.8 -11.5 152.3 -5.7 176.8 0L0 0Z" fill="#484c70"></path><path d="M0 -117.9C2.4 -96.4 4.7 -74.9 8.8 -72.2C12.8 -69.5 18.5 -85.7 21.3 -86.4C24.1 -87.2 24.1 -72.5 24.4 -64.3C24.6 -56 25.2 -54.2 30.7 -58.4C36.1 -62.7 46.5 -72.9 50.4 -73C54.3 -73.2 51.8 -63.1 51.2 -57.8C50.6 -52.5 52 -51.9 63.1 -55.9C74.2 -59.9 95 -68.5 90.1 -62.2C85.2 -55.9 54.7 -34.8 60 -31.5C65.3 -28.2 106.6 -42.8 110.2 -41.8C113.9 -40.8 79.9 -24.1 66.8 -16.5C53.6 -8.8 61.2 -10.1 73.2 -8.9C85.2 -7.6 101.6 -3.8 117.9 0L0 0Z" fill="#293058"></path><path d="M0 -58.9C1.2 -48.2 2.4 -37.5 4.4 -36.1C6.4 -34.8 9.2 -42.8 10.6 -43.2C12.1 -43.6 12.1 -36.3 12.2 -32.1C12.3 -28 12.6 -27.1 15.3 -29.2C18.1 -31.3 23.2 -36.5 25.2 -36.5C27.2 -36.6 25.9 -31.6 25.6 -28.9C25.3 -26.3 26 -25.9 31.5 -27.9C37.1 -29.9 47.5 -34.2 45.1 -31.1C42.6 -28 27.3 -17.4 30 -15.7C32.7 -14.1 53.3 -21.4 55.1 -20.9C56.9 -20.4 40 -12.1 33.4 -8.2C26.8 -4.4 30.6 -5.1 36.6 -4.4C42.6 -3.8 50.8 -1.9 58.9 0L0 0Z" fill="#18234c"></path></g></svg>