<?xml version="1.0" encoding="UTF-8" standalone="no"?>
<!-- Created with Inkscape (http://www.inkscape.org/) -->

<svg
   width="804"
   height="694"
   viewBox="0 0 804 694"
   version="1.1"
   id="svg5"
   inkscape:version="1.2.2 (732a01da63, 2022-12-09)"
   sodipodi:docname="evicon.svg"
   xmlns:inkscape="http://www.inkscape.org/namespaces/inkscape"
   xmlns:sodipodi="http://sodipodi.sourceforge.net/DTD/sodipodi-0.dtd"
   xmlns="http://www.w3.org/2000/svg"
   xmlns:svg="http://www.w3.org/2000/svg">
  <sodipodi:namedview
     id="namedview7"
     pagecolor="#ffffff"
     bordercolor="#000000"
     borderopacity="0.25"
     inkscape:showpageshadow="2"
     inkscape:pageopacity="0.0"
     inkscape:pagecheckerboard="0"
     inkscape:deskcolor="#d1d1d1"
     inkscape:document-units="px"
     showgrid="false"
     inkscape:zoom="1.2361274"
     inkscape:cx="593.78992"
     inkscape:cy="343.00671"
     inkscape:window-width="1269"
     inkscape:window-height="971"
     inkscape:window-x="2341"
     inkscape:window-y="200"
     inkscape:window-maximized="0"
     inkscape:current-layer="layer1" />
  <defs
     id="defs2">
    <inkscape:path-effect
       effect="bend_path"
       id="path-effect6728"
       is_visible="true"
       lpeversion="1"
       bendpath="m 140.93644,215.81723 c 123.49605,-48.99514 140.01632,-37.79502 238.81641,0"
       prop_scale="1.1228733"
       scale_y_rel="false"
       vertical="false"
       hide_knot="false"
       bendpath-nodetypes="cc" />
  </defs>
  <g
     inkscape:label="Layer 1"
     inkscape:groupmode="layer"
     id="layer1">
    <g
       id="g6747">
      <rect
         style="fill:#000000;fill-opacity:0.98533;stroke:#000000;stroke-width:0"
         id="rect5447"
         width="435.23022"
         height="532.30762"
         x="45.302773"
         y="64.718254"
         ry="31.954662" />
      <rect
         style="fill:#000000;fill-opacity:0.98533;stroke:#000000;stroke-width:0"
         id="rect5709"
         width="716.75458"
         height="67.954163"
         x="24.269342"
         y="554.95898"
         ry="31.954662" />
      <rect
         style="fill:#ffffff;fill-opacity:0.98533;stroke:#000000;stroke-width:0"
         id="rect5711"
         width="373.74789"
         height="195.77271"
         x="79.279854"
         y="93.841461"
         ry="31.954662" />
      <path
         style="fill:#ffffff;fill-opacity:0.98533;stroke:#000000;stroke-width:0"
         d="m 258.50666,328.44511 -43.31849,110.02102 h 28.87899 l -27.56631,97.07737 68.25944,-111.63898 -36.75508,-1.61795 z"
         id="path6391"
         sodipodi:nodetypes="ccccccc" />
      <path
         style="fill:#000000;fill-opacity:0.98533;stroke:#000000;stroke-width:0"
         d="m 276.67051,309.02964 c -67.95416,-59.86438 -66.3362,-64.71825 -66.3362,-64.71825 L 221.66,241.07548 Z"
         id="path6393" />
      <g
         aria-label="CLEAN"
         id="text6665"
         style="font-size:72px;font-family:Arial;-inkscape-font-specification:Arial;fill-opacity:0.98533;stroke:#000000;stroke-width:0"
         inkscape:path-effect="#path-effect6728"
         class="UnoptimicedTransforms"
         transform="matrix(1,0,0,1.1597759,0,-31.757774)">
        <path
           d="m 177.35092,210.09835 c 3.66932,-0.049 7.32527,-0.0656 10.96318,-0.0421 0.54107,6.48227 -0.37666,11.77867 -2.74623,15.88807 -2.36072,4.08442 -6.10619,7.07851 -11.32735,9.05008 -6.46124,2.43983 -12.75547,2.08964 -18.90785,-1.12949 -6.16149,-3.24337 -10.94378,-9.06358 -14.3039,-17.53221 -3.54952,-8.946 -4.16792,-16.7609 -1.76799,-23.42065 2.38985,-6.68295 7.20092,-11.45079 14.48847,-14.18905 6.36693,-2.39235 12.34504,-2.31587 17.75764,0.22238 3.21898,1.4962 6.16771,4.237 8.84767,8.2193 -3.17062,2.05251 -6.30619,4.13064 -9.41326,6.22921 -1.62541,-2.60518 -3.70934,-4.3711 -6.259,-5.28909 -2.52439,-0.92593 -5.18067,-0.86969 -7.93988,0.16954 -3.8127,1.43601 -6.33952,4.06246 -7.5799,7.84677 -1.21832,3.77848 -0.5554,8.87654 1.95407,15.30338 2.66205,6.81758 5.69667,11.23197 9.0704,13.25577 3.37701,2.02573 6.84596,2.3532 10.42655,1.00129 2.64148,-0.99734 4.56273,-2.7648 5.78932,-5.3197 1.22532,-2.55226 1.54204,-5.97434 0.94806,-10.26349 z"
           style="font-weight:bold;-inkscape-font-specification:'Arial Bold'"
           id="path6717"
           inkscape:original-d="m 174.12317,175.20552 10.08984,3.19922 q -2.32031,8.4375 -7.73437,12.55078 -5.37891,4.07813 -13.67578,4.07813 -10.26563,0 -16.875,-6.9961 -6.60938,-7.03125 -6.60938,-19.19531 0,-12.86719 6.64453,-19.96875 6.64453,-7.13672 17.47266,-7.13672 9.45703,0 15.36328,5.58984 3.51563,3.30469 5.27344,9.49219 l -10.30078,2.46094 q -0.91407,-4.00781 -3.83203,-6.32813 -2.88282,-2.32031 -7.03125,-2.32031 -5.73047,0 -9.31641,4.11328 -3.55078,4.11328 -3.55078,13.32422 0,9.77344 3.51562,13.92188 3.51563,4.14843 9.14063,4.14843 4.14844,0 7.13672,-2.63671 2.98828,-2.63672 4.28906,-8.29688 z" />
        <path
           d="m 202.61701,223.94051 -17.4855,-54.6421 c 3.6506,-1.1652 7.33057,-2.2952 11.04155,-3.38341 l 13.38808,45.69902 c 3.88452,-1.1372 7.77184,-2.20682 11.6646,-3.19814 4.31132,-1.09903 8.59492,-2.09486 12.84917,-2.94491 l 1.90252,9.56336 c -4.05148,0.8116 -8.16149,1.76786 -12.3284,2.82619 -6.99567,1.77407 -14.00075,3.82336 -21.03202,6.07999 z"
           style="font-weight:bold;-inkscape-font-specification:'Arial Bold'"
           id="path6719"
           inkscape:original-d="m 193.42395,194.15474 v -51.11719 h 10.40625 v 42.4336 h 25.875 v 8.68359 z" />
        <path
           d="m 242.53105,213.84608 -9.17618,-57.12688 c 2.58728,-0.41496 5.20088,-0.78956 7.84062,-1.11906 l 0,0 c 9.66756,-1.19948 19.59609,-1.66372 29.67817,-1.23734 l 0,0 c 3.26317,0.14829 6.50068,0.38819 9.70941,0.71372 l -0.99274,9.73836 c -3.02807,-0.30764 -6.07767,-0.53344 -9.14569,-0.67143 -7.95777,-0.34026 -15.85035,-0.0827 -23.6142,0.68066 l 1.25349,12.76992 c 7.21494,-0.70864 14.50228,-0.95034 21.79849,-0.6332 2.10934,0.0934 4.21366,0.23334 6.31165,0.4174 l -0.85246,9.71174 c -1.96032,-0.17212 -3.92292,-0.30227 -5.88648,-0.38794 -6.79342,-0.29957 -13.62078,-0.0699 -20.41855,0.59714 l 1.53889,15.67755 c 6.12388,-0.59981 12.20819,-0.81007 18.18942,-0.53888 2.59711,0.11006 5.20687,0.31285 7.82479,0.59982 l -1.05707,9.69211 c -2.41717,-0.26581 -4.817,-0.45224 -7.19501,-0.55073 0,0 0,0 0,0 -6.52684,-0.30215 -13.26077,0.037 -20.09435,0.86218 0,0 -1e-5,0 -1e-5,0 -1.89019,0.2263 -3.79432,0.49617 -5.71219,0.80486 z"
           style="font-weight:bold;-inkscape-font-specification:'Arial Bold'"
           id="path6721"
           inkscape:original-d="m 237.12317,194.15474 v -51.53906 h 38.21484 v 8.71875 h -27.80859 v 11.42578 h 25.875 v 8.68359 h -25.875 v 14.02735 h 28.79297 v 8.68359 z" />
        <path
           d="m 324.55338,225.74829 c -3.5389,-1.27161 -7.0608,-2.4999 -10.56973,-3.67317 -0.003,-4.62027 -0.0432,-9.24575 -0.1281,-13.87782 -0.19218,-0.0621 -0.38437,-0.12401 -0.57656,-0.18577 -6.32829,-2.03124 -12.59314,-3.8586 -18.81256,-5.3099 -2.31879,3.95758 -4.53835,7.95494 -6.64412,11.9953 -0.1089,-0.0224 -0.21775,-0.0446 -0.32655,-0.0667 -3.00861,-0.61386 -6.00223,-1.13001 -8.9727,-1.53286 4.33594,-9.74659 9.43903,-19.28319 15.17169,-28.5577 5.0646,-8.19597 10.59945,-16.19381 16.45733,-24.02709 4.19278,1.08237 8.28883,2.25443 12.29114,3.4875 0.374,4.23761 0.68018,8.46728 0.93168,12.68876 0.93584,16.43639 1.22854,32.76834 1.17848,49.05946 z M 313.59777,197.8828 c -0.17303,-7.55573 -0.50489,-15.13459 -1.06344,-22.73589 -4.42938,6.18378 -8.68628,12.45358 -12.70704,18.82341 4.60399,1.15596 9.19206,2.48007 13.77048,3.91248 z"
           style="font-weight:bold;-inkscape-font-specification:'Arial Bold'"
           id="path6723"
           inkscape:original-d="m 331.62317,194.15474 h -11.32031 l -4.5,-11.70703 h -20.60157 l -4.2539,11.70703 h -11.03906 l 20.07421,-51.53906 h 11.00391 z m -19.16016,-20.39063 -7.10156,-19.125 -6.96094,19.125 z" />
        <path
           d="m 329.84186,227.67452 19.98908,-54.30309 c 3.42354,1.25796 6.81642,2.53012 10.18153,3.80811 2.42986,14.70441 4.5297,29.36029 6.72438,44.02948 l 13.97202,-36.0418 c 3.11467,1.20882 6.20951,2.40706 9.28701,3.58743 l -20.68085,54.05064 c -3.4558,-1.31917 -6.88305,-2.64236 -10.2849,-3.96039 -2.21957,-14.35385 -4.29373,-28.67336 -6.62525,-43.01649 l -13.40601,35.28183 c -3.06787,-1.16774 -6.11938,-2.31541 -9.15701,-3.43572 z"
           style="font-weight:bold;-inkscape-font-specification:'Arial Bold'"
           id="path6725"
           inkscape:original-d="m 337.24817,194.15474 v -51.53906 h 10.125 l 21.09375,34.41797 v -34.41797 h 9.66797 v 51.53906 h -10.44141 l -20.77734,-33.60938 v 33.60938 z" />
      </g>
      <path
         style="fill:#000000;fill-opacity:0.98533;stroke:#000000;stroke-width:0"
         d="m 465.97138,349.47854 127.81854,1.61795 V 176.35723 h 27.50526 l -1.61796,195.77269 H 469.2073 Z"
         id="path6730" />
      <path
         style="fill:#000000;fill-opacity:0.98533;stroke:#000000;stroke-width:0"
         d="m 580.84627,179.59314 h 53.39256 l 0.80898,-65.52722 -12.53916,-1e-5 -1.21347,33.1681 h -25.48281 l -1.61796,-33.97707 h -13.34814 z"
         id="path6732"
         sodipodi:nodetypes="ccccccccc" />
    </g>
  </g>
</svg>
