<svg id="visual" viewBox="0 0 1024 730" width="1024" height="730" xmlns="http://www.w3.org/2000/svg" xmlns:xlink="http://www.w3.org/1999/xlink" version="1.1"><rect x="0" y="0" width="1024" height="730" fill="#2a3e65"></rect><path d="M840 0L899 56L903 112L724 168L762 225L698 281L830 337L943 393L919 449L854 505L738 562L700 618L738 674L819 730L0 730L0 674L0 618L0 562L0 505L0 449L0 393L0 337L0 281L0 225L0 168L0 112L0 56L0 0Z" fill="#7091d2"></path><path d="M691 0L745 56L752 112L690 168L772 225L823 281L720 337L775 393L710 449L636 505L805 562L749 618L838 674L757 730L0 730L0 674L0 618L0 562L0 505L0 449L0 393L0 337L0 281L0 225L0 168L0 112L0 56L0 0Z" fill="#7e9ad6"></path><path d="M805 0L630 56L605 112L677 168L640 225L807 281L557 337L705 393L811 449L802 505L685 562L787 618L621 674L607 730L0 730L0 674L0 618L0 562L0 505L0 449L0 393L0 337L0 281L0 225L0 168L0 112L0 56L0 0Z" fill="#8ca4da"></path><path d="M657 0L678 56L682 112L560 168L674 225L594 281L542 337L553 393L684 449L563 505L703 562L607 618L519 674L702 730L0 730L0 674L0 618L0 562L0 505L0 449L0 393L0 337L0 281L0 225L0 168L0 112L0 56L0 0Z" fill="#9aaddf"></path><path d="M488 0L574 56L653 112L639 168L567 225L656 281L588 337L635 393L595 449L542 505L452 562L522 618L472 674L573 730L0 730L0 674L0 618L0 562L0 505L0 449L0 393L0 337L0 281L0 225L0 168L0 112L0 56L0 0Z" fill="#a7b7e3"></path><path d="M498 0L580 56L452 112L442 168L540 225L414 281L413 337L564 393L409 449L383 505L446 562L490 618L461 674L397 730L0 730L0 674L0 618L0 562L0 505L0 449L0 393L0 337L0 281L0 225L0 168L0 112L0 56L0 0Z" fill="#b4c1e7"></path><path d="M468 0L356 56L449 112L320 168L377 225L431 281L495 337L406 393L404 449L490 505L366 562L395 618L421 674L429 730L0 730L0 674L0 618L0 562L0 505L0 449L0 393L0 337L0 281L0 225L0 168L0 112L0 56L0 0Z" fill="#c0cbeb"></path><path d="M280 0L434 56L363 112L271 168L273 225L372 281L313 337L276 393L385 449L413 505L410 562L324 618L355 674L343 730L0 730L0 674L0 618L0 562L0 505L0 449L0 393L0 337L0 281L0 225L0 168L0 112L0 56L0 0Z" fill="#cdd5ef"></path><path d="M202 0L266 56L218 112L239 168L353 225L228 281L294 337L300 393L223 449L294 505L277 562L321 618L323 674L202 730L0 730L0 674L0 618L0 562L0 505L0 449L0 393L0 337L0 281L0 225L0 168L0 112L0 56L0 0Z" fill="#dae0f3"></path><path d="M149 0L151 56L194 112L168 168L178 225L147 281L253 337L222 393L241 449L262 505L146 562L210 618L237 674L238 730L0 730L0 674L0 618L0 562L0 505L0 449L0 393L0 337L0 281L0 225L0 168L0 112L0 56L0 0Z" fill="#e6eaf7"></path><path d="M130 0L193 56L188 112L114 168L85 225L176 281L110 337L127 393L85 449L187 505L187 562L103 618L93 674L207 730L0 730L0 674L0 618L0 562L0 505L0 449L0 393L0 337L0 281L0 225L0 168L0 112L0 56L0 0Z" fill="#f3f4fb"></path><path d="M36 0L40 56L71 112L91 168L83 225L132 281L101 337L34 393L69 449L76 505L78 562L92 618L66 674L131 730L0 730L0 674L0 618L0 562L0 505L0 449L0 393L0 337L0 281L0 225L0 168L0 112L0 56L0 0Z" fill="#ffffff"></path></svg>